<svg id="Capa_1" enable-background="new 0 0 512 512" height="512" viewBox="0 0 512 512" width="512" xmlns="http://www.w3.org/2000/svg"><g><g><path d="m222.1 455.206c-4.267 0-7.726-3.459-7.726-7.726v-52.033c0-4.267 3.459-7.726 7.726-7.726s7.726 3.459 7.726 7.726v52.033c.001 4.267-3.459 7.726-7.726 7.726z" fill="#afaab4"/></g><g><path d="m289.9 455.206c-4.268 0-7.726-3.459-7.726-7.726v-52.033c0-4.267 3.459-7.726 7.726-7.726s7.726 3.459 7.726 7.726v52.033c0 4.267-3.459 7.726-7.726 7.726z" fill="#afaab4"/></g><path d="m256 395.447h39.187c1.733 0 3.384-.727 4.556-2.004 15.569-16.964 123.802-138.085 123.802-226.939 0-91.958-75.013-166.504-167.545-166.504s-167.545 74.546-167.545 166.504c0 88.854 108.232 209.975 123.802 226.939 1.172 1.277 2.823 2.004 4.556 2.004z" fill="#e28086"/><path d="m400.666 82.48c.676 6.757 1.025 13.61 1.025 20.544 0 112.648-91.319 203.967-203.967 203.967-20.445 0-40.182-3.022-58.804-8.62 30.504 47.49 65.055 86.045 73.339 95.073 1.172 1.277 2.821 2.002 4.554 2.002h39.187 39.187c1.733 0 3.384-.727 4.556-2.004 15.569-16.964 123.802-138.085 123.802-226.939 0-30.648-8.342-59.357-22.879-84.023z" fill="#dd636e"/><path d="m256 0c-63.221 0-114.472 74.546-114.472 166.504 0 95.74 85.854 228.943 85.854 228.943s7.869 0 15.61 0c-.002-.005-39.024-133.205-39.024-228.943-.001-91.957 23.295-166.504 52.032-166.504s52.033 74.547 52.033 166.504c0 95.738-39.023 228.937-39.024 228.943h15.61s85.854-133.203 85.854-228.943c-.001-91.958-51.252-166.504-114.473-166.504z" fill="#f9f6f9"/><g fill="#dfdde2"><path d="m197.724 306.992c-6.146 0-12.225-.288-18.233-.82 22.984 50.622 47.891 89.275 47.891 89.275s7.869 0 15.61 0c-.001-.003-11.4-38.922-21.877-89.798-7.677.877-15.479 1.343-23.391 1.343z"/><path d="m295.489 282.071c-11.41 61.925-26.48 113.373-26.481 113.376h15.61s56.685-87.948 77.935-172.282c-17.693 24.233-40.593 44.421-67.064 58.906z"/></g><path d="m287.22 512h-62.44c-5.747 0-10.406-4.659-10.406-10.406v-54.114h83.252v54.114c0 5.747-4.659 10.406-10.406 10.406z" fill="#b78b7a"/><path d="m274.732 447.48v54.114c0 5.747-4.659 10.406-10.406 10.406h22.894c5.747 0 10.406-4.659 10.406-10.406v-54.114z" fill="#aa7a63"/><g><path d="m469.95 422.788c-1.726-.259-3.148-1.45-3.859-3.044-5.84-13.089-18.962-22.215-34.221-22.215s-28.381 9.126-34.221 22.215c-.711 1.594-2.133 2.785-3.859 3.044-11.984 1.799-21.182 12.108-21.237 24.58-.06 13.8 11.718 25.087 25.518 25.087h67.598c13.8 0 25.578-11.287 25.518-25.087-.055-12.472-9.253-22.781-21.237-24.58z" fill="#ddeafb"/><path d="m466.082 419.724c-3.734-8.355-10.438-15.09-18.768-18.867 2.123 5.954 3.288 12.363 3.288 19.046 0 23.776-14.637 44.122-35.386 52.553h50.453c13.8 0 25.578-11.287 25.518-25.087-.055-12.471-9.25-22.779-21.232-24.58-1.735-.261-3.157-1.464-3.873-3.065z" fill="#9dc6fb"/></g><g><path d="m118.21 397.812c-1.726-.259-3.148-1.45-3.859-3.044-5.84-13.089-18.962-22.215-34.221-22.215s-28.381 9.126-34.221 22.215c-.711 1.594-2.133 2.785-3.859 3.044-11.984 1.799-21.182 12.108-21.237 24.58-.06 13.8 11.718 25.087 25.518 25.087h67.598c13.8 0 25.578-11.287 25.518-25.087-.055-12.472-9.253-22.781-21.237-24.58z" fill="#ddeafb"/><path d="m114.342 394.748c-3.734-8.355-10.438-15.09-18.768-18.867 2.123 5.954 3.288 12.363 3.288 19.046 0 23.776-14.637 44.122-35.386 52.553h50.453c13.8 0 25.578-11.287 25.518-25.087-.055-12.471-9.25-22.779-21.232-24.58-1.735-.261-3.157-1.463-3.873-3.065z" fill="#9dc6fb"/></g><g><path d="m308.032 455.206h-104.065c-4.267 0-7.726-3.459-7.726-7.726s3.459-7.726 7.726-7.726h104.065c4.268 0 7.726 3.459 7.726 7.726.001 4.267-3.458 7.726-7.726 7.726z" fill="#aa7a63"/></g></g></svg>